<?xml version="1.0" encoding="UTF-8"?>
<svg xmlns="http://www.w3.org/2000/svg" width="1016" height="2659" viewBox="0 0 1016 2659" font-family="'Helvetica Neue', Helvetica, Arial, sans-serif">
<title>Chức năng của Khách hàng sỉ — 79 chức năng</title>
<rect width="100%" height="100%" fill="#FFFFFF"/>
<rect x="740.8" y="266" width="235.2" height="27" fill="#fff" stroke="#292524" stroke-width="1.5"/><text x="858.4" y="284" text-anchor="middle" font-size="13" font-weight="600" fill="#1C1917">Chức năng của Khách hàng sỉ</text>
<rect x="60" y="293" width="916" height="2296" fill="#fff" stroke="#292524" stroke-width="1.8"/>
<text x="94" y="325" font-size="12.5" font-weight="700" fill="#57534E">Hình 2.1 · Cửa hàng, hỗ trợ và mua sỉ</text>
<line x1="94" y1="332" x2="466" y2="332" stroke="#E7E5E4" stroke-width="1"/>
<text x="94" y="857" font-size="12.5" font-weight="700" fill="#57534E">Hình 2.2 · Xem chi tiết sản phẩm</text>
<line x1="94" y1="864" x2="466" y2="864" stroke="#E7E5E4" stroke-width="1"/>
<text x="94" y="1341" font-size="12.5" font-weight="700" fill="#57534E">Hình 2.3 · Duyệt, tìm kiếm và combo</text>
<line x1="94" y1="1348" x2="466" y2="1348" stroke="#E7E5E4" stroke-width="1"/>
<text x="94" y="1921" font-size="12.5" font-weight="700" fill="#57534E">Hình 2.4 · Tài khoản và xác thực</text>
<line x1="94" y1="1928" x2="466" y2="1928" stroke="#E7E5E4" stroke-width="1"/>
<text x="574" y="325" font-size="12.5" font-weight="700" fill="#57534E">Hình 2.5 · Theo dõi và quản lý đơn hàng</text>
<line x1="574" y1="332" x2="946" y2="332" stroke="#E7E5E4" stroke-width="1"/>
<text x="574" y="761" font-size="12.5" font-weight="700" fill="#57534E">Hình 2.6 · Giỏ hàng</text>
<line x1="574" y1="768" x2="946" y2="768" stroke="#E7E5E4" stroke-width="1"/>
<text x="574" y="1197" font-size="12.5" font-weight="700" fill="#57534E">Hình 2.7 · Đặt hàng và thanh toán</text>
<line x1="574" y1="1204" x2="946" y2="1204" stroke="#E7E5E4" stroke-width="1"/>
<text x="574" y="1729" font-size="12.5" font-weight="700" fill="#57534E">Hình 2.8 · Yêu thích và đánh giá</text>
<line x1="574" y1="1736" x2="946" y2="1736" stroke="#E7E5E4" stroke-width="1"/>
<text x="574" y="1973" font-size="12.5" font-weight="700" fill="#57534E">Hình 2.9 · Hồ sơ, sổ địa chỉ và doanh nghiệp</text>
<line x1="574" y1="1980" x2="946" y2="1980" stroke="#E7E5E4" stroke-width="1"/>
<line x1="186" y1="107" x2="520" y2="107" stroke="#292524" stroke-width="1.4"/>
<line x1="520" y1="107" x2="520" y2="2540" stroke="#292524" stroke-width="1.4"/>
<line x1="520" y1="364" x2="466" y2="364" stroke="#B8B2AA" stroke-width="1.1"/>
<line x1="520" y1="412" x2="466" y2="412" stroke="#B8B2AA" stroke-width="1.1"/>
<line x1="520" y1="460" x2="466" y2="460" stroke="#B8B2AA" stroke-width="1.1"/>
<line x1="520" y1="508" x2="466" y2="508" stroke="#B8B2AA" stroke-width="1.1"/>
<line x1="520" y1="556" x2="466" y2="556" stroke="#B8B2AA" stroke-width="1.1"/>
<line x1="520" y1="604" x2="466" y2="604" stroke="#B8B2AA" stroke-width="1.1"/>
<line x1="520" y1="652" x2="466" y2="652" stroke="#B8B2AA" stroke-width="1.1"/>
<line x1="520" y1="700" x2="466" y2="700" stroke="#B8B2AA" stroke-width="1.1"/>
<line x1="520" y1="748" x2="466" y2="748" stroke="#B8B2AA" stroke-width="1.1"/>
<line x1="520" y1="796" x2="466" y2="796" stroke="#B8B2AA" stroke-width="1.1"/>
<line x1="520" y1="896" x2="466" y2="896" stroke="#B8B2AA" stroke-width="1.1"/>
<line x1="520" y1="944" x2="466" y2="944" stroke="#B8B2AA" stroke-width="1.1"/>
<line x1="520" y1="992" x2="466" y2="992" stroke="#B8B2AA" stroke-width="1.1"/>
<line x1="520" y1="1040" x2="466" y2="1040" stroke="#B8B2AA" stroke-width="1.1"/>
<line x1="520" y1="1088" x2="466" y2="1088" stroke="#B8B2AA" stroke-width="1.1"/>
<line x1="520" y1="1136" x2="466" y2="1136" stroke="#B8B2AA" stroke-width="1.1"/>
<line x1="520" y1="1184" x2="466" y2="1184" stroke="#B8B2AA" stroke-width="1.1"/>
<line x1="520" y1="1232" x2="466" y2="1232" stroke="#B8B2AA" stroke-width="1.1"/>
<line x1="520" y1="1280" x2="466" y2="1280" stroke="#B8B2AA" stroke-width="1.1"/>
<line x1="520" y1="1380" x2="466" y2="1380" stroke="#B8B2AA" stroke-width="1.1"/>
<line x1="520" y1="1428" x2="466" y2="1428" stroke="#B8B2AA" stroke-width="1.1"/>
<line x1="520" y1="1476" x2="466" y2="1476" stroke="#B8B2AA" stroke-width="1.1"/>
<line x1="520" y1="1524" x2="466" y2="1524" stroke="#B8B2AA" stroke-width="1.1"/>
<line x1="520" y1="1572" x2="466" y2="1572" stroke="#B8B2AA" stroke-width="1.1"/>
<line x1="520" y1="1620" x2="466" y2="1620" stroke="#B8B2AA" stroke-width="1.1"/>
<line x1="520" y1="1668" x2="466" y2="1668" stroke="#B8B2AA" stroke-width="1.1"/>
<line x1="520" y1="1716" x2="466" y2="1716" stroke="#B8B2AA" stroke-width="1.1"/>
<line x1="520" y1="1764" x2="466" y2="1764" stroke="#B8B2AA" stroke-width="1.1"/>
<line x1="520" y1="1812" x2="466" y2="1812" stroke="#B8B2AA" stroke-width="1.1"/>
<line x1="520" y1="1860" x2="466" y2="1860" stroke="#B8B2AA" stroke-width="1.1"/>
<line x1="520" y1="1960" x2="466" y2="1960" stroke="#B8B2AA" stroke-width="1.1"/>
<line x1="520" y1="2008" x2="466" y2="2008" stroke="#B8B2AA" stroke-width="1.1"/>
<line x1="520" y1="2056" x2="466" y2="2056" stroke="#B8B2AA" stroke-width="1.1"/>
<line x1="520" y1="2104" x2="466" y2="2104" stroke="#B8B2AA" stroke-width="1.1"/>
<line x1="520" y1="2152" x2="466" y2="2152" stroke="#B8B2AA" stroke-width="1.1"/>
<line x1="520" y1="2200" x2="466" y2="2200" stroke="#B8B2AA" stroke-width="1.1"/>
<line x1="520" y1="2248" x2="466" y2="2248" stroke="#B8B2AA" stroke-width="1.1"/>
<line x1="520" y1="364" x2="574" y2="364" stroke="#B8B2AA" stroke-width="1.1"/>
<line x1="520" y1="412" x2="574" y2="412" stroke="#B8B2AA" stroke-width="1.1"/>
<line x1="520" y1="460" x2="574" y2="460" stroke="#B8B2AA" stroke-width="1.1"/>
<line x1="520" y1="508" x2="574" y2="508" stroke="#B8B2AA" stroke-width="1.1"/>
<line x1="520" y1="556" x2="574" y2="556" stroke="#B8B2AA" stroke-width="1.1"/>
<line x1="520" y1="604" x2="574" y2="604" stroke="#B8B2AA" stroke-width="1.1"/>
<line x1="520" y1="652" x2="574" y2="652" stroke="#B8B2AA" stroke-width="1.1"/>
<line x1="520" y1="700" x2="574" y2="700" stroke="#B8B2AA" stroke-width="1.1"/>
<line x1="520" y1="800" x2="574" y2="800" stroke="#B8B2AA" stroke-width="1.1"/>
<line x1="520" y1="848" x2="574" y2="848" stroke="#B8B2AA" stroke-width="1.1"/>
<line x1="520" y1="896" x2="574" y2="896" stroke="#B8B2AA" stroke-width="1.1"/>
<line x1="520" y1="944" x2="574" y2="944" stroke="#B8B2AA" stroke-width="1.1"/>
<line x1="520" y1="992" x2="574" y2="992" stroke="#B8B2AA" stroke-width="1.1"/>
<line x1="520" y1="1040" x2="574" y2="1040" stroke="#B8B2AA" stroke-width="1.1"/>
<line x1="520" y1="1088" x2="574" y2="1088" stroke="#B8B2AA" stroke-width="1.1"/>
<line x1="520" y1="1136" x2="574" y2="1136" stroke="#B8B2AA" stroke-width="1.1"/>
<line x1="520" y1="1236" x2="574" y2="1236" stroke="#B8B2AA" stroke-width="1.1"/>
<line x1="520" y1="1284" x2="574" y2="1284" stroke="#B8B2AA" stroke-width="1.1"/>
<line x1="520" y1="1332" x2="574" y2="1332" stroke="#B8B2AA" stroke-width="1.1"/>
<line x1="520" y1="1380" x2="574" y2="1380" stroke="#B8B2AA" stroke-width="1.1"/>
<line x1="520" y1="1428" x2="574" y2="1428" stroke="#B8B2AA" stroke-width="1.1"/>
<line x1="520" y1="1476" x2="574" y2="1476" stroke="#B8B2AA" stroke-width="1.1"/>
<line x1="520" y1="1524" x2="574" y2="1524" stroke="#B8B2AA" stroke-width="1.1"/>
<line x1="520" y1="1572" x2="574" y2="1572" stroke="#B8B2AA" stroke-width="1.1"/>
<line x1="520" y1="1620" x2="574" y2="1620" stroke="#B8B2AA" stroke-width="1.1"/>
<line x1="520" y1="1668" x2="574" y2="1668" stroke="#292524" stroke-width="1.4"/>
<line x1="520" y1="1768" x2="574" y2="1768" stroke="#B8B2AA" stroke-width="1.1"/>
<line x1="520" y1="1816" x2="574" y2="1816" stroke="#B8B2AA" stroke-width="1.1"/>
<line x1="520" y1="1864" x2="574" y2="1864" stroke="#B8B2AA" stroke-width="1.1"/>
<line x1="520" y1="1912" x2="574" y2="1912" stroke="#B8B2AA" stroke-width="1.1"/>
<line x1="520" y1="2012" x2="574" y2="2012" stroke="#B8B2AA" stroke-width="1.1"/>
<line x1="520" y1="2060" x2="574" y2="2060" stroke="#B8B2AA" stroke-width="1.1"/>
<line x1="520" y1="2108" x2="574" y2="2108" stroke="#B8B2AA" stroke-width="1.1"/>
<line x1="520" y1="2156" x2="574" y2="2156" stroke="#B8B2AA" stroke-width="1.1"/>
<line x1="520" y1="2204" x2="574" y2="2204" stroke="#B8B2AA" stroke-width="1.1"/>
<line x1="520" y1="2252" x2="574" y2="2252" stroke="#B8B2AA" stroke-width="1.1"/>
<line x1="520" y1="2300" x2="574" y2="2300" stroke="#B8B2AA" stroke-width="1.1"/>
<line x1="520" y1="2348" x2="574" y2="2348" stroke="#B8B2AA" stroke-width="1.1"/>
<line x1="520" y1="2396" x2="574" y2="2396" stroke="#292524" stroke-width="1.4"/>
<line x1="520" y1="2444" x2="574" y2="2444" stroke="#292524" stroke-width="1.4"/>
<line x1="520" y1="2492" x2="574" y2="2492" stroke="#292524" stroke-width="1.4"/>
<line x1="520" y1="2540" x2="574" y2="2540" stroke="#292524" stroke-width="1.4"/>
<g><ellipse cx="280" cy="364" rx="186" ry="21" fill="#fff" stroke="#B8B2AA" stroke-width="1.4"/><text x="280" y="368.5" text-anchor="middle" font-size="12.5" fill="#78716C"><tspan font-weight="700" fill="#78716C">UC-1.1</tspan><tspan dx="7">Xem hệ thống cửa hàng</tspan></text></g>
<g><ellipse cx="280" cy="412" rx="186" ry="21" fill="#fff" stroke="#B8B2AA" stroke-width="1.4"/><text x="280" y="416.5" text-anchor="middle" font-size="12.5" fill="#78716C"><tspan font-weight="700" fill="#78716C">UC-1.2</tspan><tspan dx="7">Lọc cửa hàng theo khu vực</tspan></text></g>
<g><ellipse cx="280" cy="460" rx="186" ry="21" fill="#fff" stroke="#B8B2AA" stroke-width="1.4"/><text x="280" y="464.5" text-anchor="middle" font-size="12.5" fill="#78716C"><tspan font-weight="700" fill="#78716C">UC-1.3</tspan><tspan dx="7">Xem chỉ đường đến cửa hàng</tspan></text></g>
<g><ellipse cx="280" cy="508" rx="186" ry="21" fill="#fff" stroke="#B8B2AA" stroke-width="1.4"/><text x="280" y="512.5" text-anchor="middle" font-size="12.5" fill="#78716C"><tspan font-weight="700" fill="#78716C">UC-1.4</tspan><tspan dx="7">Gọi điện đến cửa hàng</tspan></text></g>
<g><ellipse cx="280" cy="556" rx="186" ry="21" fill="#fff" stroke="#B8B2AA" stroke-width="1.4"/><text x="280" y="560.5" text-anchor="middle" font-size="12.5" fill="#78716C"><tspan font-weight="700" fill="#78716C">UC-1.5</tspan><tspan dx="7">Xem trung tâm hỗ trợ và chính sách</tspan></text></g>
<g><ellipse cx="280" cy="604" rx="186" ry="21" fill="#fff" stroke="#B8B2AA" stroke-width="1.4"/><text x="280" y="608.5" text-anchor="middle" font-size="12.5" fill="#78716C"><tspan font-weight="700" fill="#78716C">UC-1.6</tspan><tspan dx="7">Xem câu hỏi thường gặp (FAQ)</tspan></text></g>
<g><ellipse cx="280" cy="652" rx="186" ry="21" fill="#fff" stroke="#B8B2AA" stroke-width="1.4"/><text x="280" y="656.5" text-anchor="middle" font-size="12.5" fill="#78716C"><tspan font-weight="700" fill="#78716C">UC-1.7</tspan><tspan dx="7">Xem giới thiệu công ty</tspan></text></g>
<g><ellipse cx="280" cy="700" rx="186" ry="21" fill="#fff" stroke="#B8B2AA" stroke-width="1.4"/><text x="280" y="704.5" text-anchor="middle" font-size="12.5" fill="#78716C"><tspan font-weight="700" fill="#78716C">UC-1.8</tspan><tspan dx="7">Gửi liên hệ, góp ý</tspan></text></g>
<g><ellipse cx="280" cy="748" rx="186" ry="21" fill="#fff" stroke="#B8B2AA" stroke-width="1.4"/><text x="280" y="752.5" text-anchor="middle" font-size="12.5" fill="#78716C"><tspan font-weight="700" fill="#78716C">UC-1.9</tspan><tspan dx="7">Xem quyền lợi và bảng chiết khấu mua sỉ</tspan></text></g>
<g><ellipse cx="280" cy="796" rx="186" ry="21" fill="#fff" stroke="#B8B2AA" stroke-width="1.4"/><text x="280" y="800.5" text-anchor="middle" font-size="12.5" fill="#78716C"><tspan font-weight="700" fill="#78716C">UC-1.10</tspan><tspan dx="7">Gửi yêu cầu đăng ký đại lý mua sỉ</tspan></text></g>
<g><ellipse cx="280" cy="896" rx="186" ry="21" fill="#fff" stroke="#B8B2AA" stroke-width="1.4"/><text x="280" y="900.5" text-anchor="middle" font-size="12.5" fill="#78716C"><tspan font-weight="700" fill="#78716C">UC-2.1</tspan><tspan dx="7">Xem chi tiết sản phẩm</tspan></text></g>
<g><ellipse cx="280" cy="944" rx="186" ry="21" fill="#fff" stroke="#B8B2AA" stroke-width="1.4"/><text x="280" y="948.5" text-anchor="middle" font-size="12.5" fill="#78716C"><tspan font-weight="700" fill="#78716C">UC-2.2</tspan><tspan dx="7">Phóng to ảnh sản phẩm</tspan></text></g>
<g><ellipse cx="280" cy="992" rx="186" ry="21" fill="#fff" stroke="#B8B2AA" stroke-width="1.4"/><text x="280" y="996.5" text-anchor="middle" font-size="12.5" fill="#78716C"><tspan font-weight="700" fill="#78716C">UC-2.3</tspan><tspan dx="7">Xem bảng giá sỉ bậc thang</tspan></text></g>
<g><ellipse cx="280" cy="1040" rx="186" ry="21" fill="#fff" stroke="#B8B2AA" stroke-width="1.4"/><text x="280" y="1044.5" text-anchor="middle" font-size="12.5" fill="#78716C"><tspan font-weight="700" fill="#78716C">UC-2.4</tspan><tspan dx="7">Chọn nhanh số lượng theo bậc giá</tspan></text></g>
<g><ellipse cx="280" cy="1088" rx="186" ry="21" fill="#fff" stroke="#B8B2AA" stroke-width="1.4"/><text x="280" y="1092.5" text-anchor="middle" font-size="12.5" fill="#78716C"><tspan font-weight="700" fill="#78716C">UC-2.5</tspan><tspan dx="7">Xem hạn dùng, số lô và tồn kho</tspan></text></g>
<g><ellipse cx="280" cy="1136" rx="186" ry="21" fill="#fff" stroke="#B8B2AA" stroke-width="1.4"/><text x="280" y="1140.5" text-anchor="middle" font-size="12.5" fill="#78716C"><tspan font-weight="700" fill="#78716C">UC-2.6</tspan><tspan dx="7">Xem tình trạng hàng tại các cửa hàng</tspan></text></g>
<g><ellipse cx="280" cy="1184" rx="186" ry="21" fill="#fff" stroke="#B8B2AA" stroke-width="1.4"/><text x="280" y="1188.5" text-anchor="middle" font-size="12.5" fill="#78716C"><tspan font-weight="700" fill="#78716C">UC-2.7</tspan><tspan dx="7">Xem mô tả, thành phần và thông số</tspan></text></g>
<g><ellipse cx="280" cy="1232" rx="186" ry="21" fill="#fff" stroke="#B8B2AA" stroke-width="1.4"/><text x="280" y="1236.5" text-anchor="middle" font-size="12.5" fill="#78716C"><tspan font-weight="700" fill="#78716C">UC-2.8</tspan><tspan dx="7">Xem đánh giá của khách hàng</tspan></text></g>
<g><ellipse cx="280" cy="1280" rx="186" ry="21" fill="#fff" stroke="#B8B2AA" stroke-width="1.4"/><text x="280" y="1284.5" text-anchor="middle" font-size="12.5" fill="#78716C"><tspan font-weight="700" fill="#78716C">UC-2.9</tspan><tspan dx="7">Xem món bánh phù hợp và sản phẩm liên quan</tspan></text></g>
<g><ellipse cx="280" cy="1380" rx="186" ry="21" fill="#fff" stroke="#B8B2AA" stroke-width="1.4"/><text x="280" y="1384.5" text-anchor="middle" font-size="12.5" fill="#78716C"><tspan font-weight="700" fill="#78716C">UC-3.1</tspan><tspan dx="7">Xem trang chủ</tspan></text></g>
<g><ellipse cx="280" cy="1428" rx="186" ry="21" fill="#fff" stroke="#B8B2AA" stroke-width="1.4"/><text x="280" y="1432.5" text-anchor="middle" font-size="12.5" fill="#78716C"><tspan font-weight="700" fill="#78716C">UC-3.2</tspan><tspan dx="7">Duyệt sản phẩm theo danh mục</tspan></text></g>
<g><ellipse cx="280" cy="1476" rx="186" ry="21" fill="#fff" stroke="#B8B2AA" stroke-width="1.4"/><text x="280" y="1480.5" text-anchor="middle" font-size="12.5" fill="#78716C"><tspan font-weight="700" fill="#78716C">UC-3.3</tspan><tspan dx="7">Lọc sản phẩm</tspan></text></g>
<g><ellipse cx="280" cy="1524" rx="186" ry="21" fill="#fff" stroke="#B8B2AA" stroke-width="1.4"/><text x="280" y="1528.5" text-anchor="middle" font-size="12.5" fill="#78716C"><tspan font-weight="700" fill="#78716C">UC-3.4</tspan><tspan dx="7">Sắp xếp sản phẩm</tspan></text></g>
<g><ellipse cx="280" cy="1572" rx="186" ry="21" fill="#fff" stroke="#B8B2AA" stroke-width="1.4"/><text x="280" y="1576.5" text-anchor="middle" font-size="12.5" fill="#78716C"><tspan font-weight="700" fill="#78716C">UC-3.5</tspan><tspan dx="7">Chuyển trang danh sách</tspan></text></g>
<g><ellipse cx="280" cy="1620" rx="186" ry="21" fill="#fff" stroke="#B8B2AA" stroke-width="1.4"/><text x="280" y="1624.5" text-anchor="middle" font-size="12.5" fill="#78716C"><tspan font-weight="700" fill="#78716C">UC-3.6</tspan><tspan dx="7">Tìm kiếm sản phẩm</tspan></text></g>
<g><ellipse cx="280" cy="1668" rx="186" ry="21" fill="#fff" stroke="#B8B2AA" stroke-width="1.4"/><text x="280" y="1672.5" text-anchor="middle" font-size="12.5" fill="#78716C"><tspan font-weight="700" fill="#78716C">UC-3.7</tspan><tspan dx="7">Xem gợi ý tìm kiếm (Ctrl/⌘ + K)</tspan></text></g>
<g><ellipse cx="280" cy="1716" rx="186" ry="21" fill="#fff" stroke="#B8B2AA" stroke-width="1.4"/><text x="280" y="1720.5" text-anchor="middle" font-size="12.5" fill="#78716C"><tspan font-weight="700" fill="#78716C">UC-3.8</tspan><tspan dx="7">Xem danh sách combo công thức</tspan></text></g>
<g><ellipse cx="280" cy="1764" rx="186" ry="21" fill="#fff" stroke="#B8B2AA" stroke-width="1.4"/><text x="280" y="1768.5" text-anchor="middle" font-size="12.5" fill="#78716C"><tspan font-weight="700" fill="#78716C">UC-3.9</tspan><tspan dx="7">Xem chi tiết combo và cách làm</tspan></text></g>
<g><ellipse cx="280" cy="1812" rx="186" ry="21" fill="#fff" stroke="#B8B2AA" stroke-width="1.4"/><text x="280" y="1816.5" text-anchor="middle" font-size="12.5" fill="#78716C"><tspan font-weight="700" fill="#78716C">UC-3.10</tspan><tspan dx="7">Chọn hoặc bỏ nguyên liệu trong combo</tspan></text></g>
<g><ellipse cx="280" cy="1860" rx="186" ry="21" fill="#fff" stroke="#B8B2AA" stroke-width="1.4"/><text x="280" y="1864.5" text-anchor="middle" font-size="12.5" fill="#78716C"><tspan font-weight="700" fill="#78716C">UC-3.11</tspan><tspan dx="7">Thêm nguyên liệu đã chọn vào giỏ</tspan></text></g>
<g><ellipse cx="280" cy="1960" rx="186" ry="21" fill="#fff" stroke="#B8B2AA" stroke-width="1.4"/><text x="280" y="1964.5" text-anchor="middle" font-size="12.5" fill="#78716C"><tspan font-weight="700" fill="#78716C">UC-4.1</tspan><tspan dx="7">Đăng nhập</tspan></text></g>
<g><ellipse cx="280" cy="2008" rx="186" ry="21" fill="#fff" stroke="#B8B2AA" stroke-width="1.4"/><text x="280" y="2012.5" text-anchor="middle" font-size="12.5" fill="#78716C"><tspan font-weight="700" fill="#78716C">UC-4.2</tspan><tspan dx="7">Đăng ký tài khoản khách lẻ</tspan></text></g>
<g><ellipse cx="280" cy="2056" rx="186" ry="21" fill="#fff" stroke="#B8B2AA" stroke-width="1.4"/><text x="280" y="2060.5" text-anchor="middle" font-size="12.5" fill="#78716C"><tspan font-weight="700" fill="#78716C">UC-4.3</tspan><tspan dx="7">Đăng ký tài khoản doanh nghiệp (sỉ)</tspan></text></g>
<g><ellipse cx="280" cy="2104" rx="186" ry="21" fill="#fff" stroke="#B8B2AA" stroke-width="1.4"/><text x="280" y="2108.5" text-anchor="middle" font-size="12.5" fill="#78716C"><tspan font-weight="700" fill="#78716C">UC-4.4</tspan><tspan dx="7">Xác thực OTP</tspan></text></g>
<g><ellipse cx="280" cy="2152" rx="186" ry="21" fill="#fff" stroke="#B8B2AA" stroke-width="1.4"/><text x="280" y="2156.5" text-anchor="middle" font-size="12.5" fill="#78716C"><tspan font-weight="700" fill="#78716C">UC-4.5</tspan><tspan dx="7">Gửi lại mã OTP</tspan></text></g>
<g><ellipse cx="280" cy="2200" rx="186" ry="21" fill="#fff" stroke="#B8B2AA" stroke-width="1.4"/><text x="280" y="2204.5" text-anchor="middle" font-size="12.5" fill="#78716C"><tspan font-weight="700" fill="#78716C">UC-4.6</tspan><tspan dx="7">Quên mật khẩu</tspan></text></g>
<g><ellipse cx="280" cy="2248" rx="186" ry="21" fill="#fff" stroke="#B8B2AA" stroke-width="1.4"/><text x="280" y="2252.5" text-anchor="middle" font-size="12.5" fill="#78716C"><tspan font-weight="700" fill="#78716C">UC-4.7</tspan><tspan dx="7">Đăng xuất</tspan></text></g>
<g><ellipse cx="760" cy="364" rx="186" ry="21" fill="#fff" stroke="#B8B2AA" stroke-width="1.4"/><text x="760" y="368.5" text-anchor="middle" font-size="12.5" fill="#78716C"><tspan font-weight="700" fill="#78716C">UC-5.1</tspan><tspan dx="7">Tra cứu đơn hàng bằng mã đơn và SĐT</tspan></text></g>
<g><ellipse cx="760" cy="412" rx="186" ry="21" fill="#fff" stroke="#B8B2AA" stroke-width="1.4"/><text x="760" y="416.5" text-anchor="middle" font-size="12.5" fill="#78716C"><tspan font-weight="700" fill="#78716C">UC-5.2</tspan><tspan dx="7">Xem hành trình đơn hàng</tspan></text></g>
<g><ellipse cx="760" cy="460" rx="186" ry="21" fill="#fff" stroke="#B8B2AA" stroke-width="1.4"/><text x="760" y="464.5" text-anchor="middle" font-size="12.5" fill="#78716C"><tspan font-weight="700" fill="#78716C">UC-5.3</tspan><tspan dx="7">Hủy đơn hàng</tspan></text></g>
<g><ellipse cx="760" cy="508" rx="186" ry="21" fill="#fff" stroke="#B8B2AA" stroke-width="1.4"/><text x="760" y="512.5" text-anchor="middle" font-size="12.5" fill="#78716C"><tspan font-weight="700" fill="#78716C">UC-5.4</tspan><tspan dx="7">Mua lại đơn hàng</tspan></text></g>
<g><ellipse cx="760" cy="556" rx="186" ry="21" fill="#fff" stroke="#B8B2AA" stroke-width="1.4"/><text x="760" y="560.5" text-anchor="middle" font-size="12.5" fill="#78716C"><tspan font-weight="700" fill="#78716C">UC-5.5</tspan><tspan dx="7">In hóa đơn</tspan></text></g>
<g><ellipse cx="760" cy="604" rx="186" ry="21" fill="#fff" stroke="#B8B2AA" stroke-width="1.4"/><text x="760" y="608.5" text-anchor="middle" font-size="12.5" fill="#78716C"><tspan font-weight="700" fill="#78716C">UC-5.6</tspan><tspan dx="7">Tải hóa đơn điện tử (PDF)</tspan></text></g>
<g><ellipse cx="760" cy="652" rx="186" ry="21" fill="#fff" stroke="#B8B2AA" stroke-width="1.4"/><text x="760" y="656.5" text-anchor="middle" font-size="12.5" fill="#78716C"><tspan font-weight="700" fill="#78716C">UC-5.7</tspan><tspan dx="7">Xem danh sách đơn hàng của tôi</tspan></text></g>
<g><ellipse cx="760" cy="700" rx="186" ry="21" fill="#fff" stroke="#B8B2AA" stroke-width="1.4"/><text x="760" y="704.5" text-anchor="middle" font-size="12.5" fill="#78716C"><tspan font-weight="700" fill="#78716C">UC-5.8</tspan><tspan dx="7">Lọc đơn theo trạng thái</tspan></text></g>
<g><ellipse cx="760" cy="800" rx="186" ry="21" fill="#fff" stroke="#B8B2AA" stroke-width="1.4"/><text x="760" y="804.5" text-anchor="middle" font-size="12.5" fill="#78716C"><tspan font-weight="700" fill="#78716C">UC-6.1</tspan><tspan dx="7">Thêm sản phẩm vào giỏ</tspan></text></g>
<g><ellipse cx="760" cy="848" rx="186" ry="21" fill="#fff" stroke="#B8B2AA" stroke-width="1.4"/><text x="760" y="852.5" text-anchor="middle" font-size="12.5" fill="#78716C"><tspan font-weight="700" fill="#78716C">UC-6.2</tspan><tspan dx="7">Mua ngay</tspan></text></g>
<g><ellipse cx="760" cy="896" rx="186" ry="21" fill="#fff" stroke="#B8B2AA" stroke-width="1.4"/><text x="760" y="900.5" text-anchor="middle" font-size="12.5" fill="#78716C"><tspan font-weight="700" fill="#78716C">UC-6.3</tspan><tspan dx="7">Xem giỏ hàng</tspan></text></g>
<g><ellipse cx="760" cy="944" rx="186" ry="21" fill="#fff" stroke="#B8B2AA" stroke-width="1.4"/><text x="760" y="948.5" text-anchor="middle" font-size="12.5" fill="#78716C"><tspan font-weight="700" fill="#78716C">UC-6.4</tspan><tspan dx="7">Đổi số lượng sản phẩm trong giỏ</tspan></text></g>
<g><ellipse cx="760" cy="992" rx="186" ry="21" fill="#fff" stroke="#B8B2AA" stroke-width="1.4"/><text x="760" y="996.5" text-anchor="middle" font-size="12.5" fill="#78716C"><tspan font-weight="700" fill="#78716C">UC-6.5</tspan><tspan dx="7">Xóa sản phẩm khỏi giỏ</tspan></text></g>
<g><ellipse cx="760" cy="1040" rx="186" ry="21" fill="#fff" stroke="#B8B2AA" stroke-width="1.4"/><text x="760" y="1044.5" text-anchor="middle" font-size="12.5" fill="#78716C"><tspan font-weight="700" fill="#78716C">UC-6.6</tspan><tspan dx="7">Xóa toàn bộ giỏ hàng</tspan></text></g>
<g><ellipse cx="760" cy="1088" rx="186" ry="21" fill="#fff" stroke="#B8B2AA" stroke-width="1.4"/><text x="760" y="1092.5" text-anchor="middle" font-size="12.5" fill="#78716C"><tspan font-weight="700" fill="#78716C">UC-6.7</tspan><tspan dx="7">Áp dụng mã giảm giá</tspan></text></g>
<g><ellipse cx="760" cy="1136" rx="186" ry="21" fill="#fff" stroke="#B8B2AA" stroke-width="1.4"/><text x="760" y="1140.5" text-anchor="middle" font-size="12.5" fill="#78716C"><tspan font-weight="700" fill="#78716C">UC-6.8</tspan><tspan dx="7">Bỏ mã giảm giá</tspan></text></g>
<g><ellipse cx="760" cy="1236" rx="186" ry="21" fill="#fff" stroke="#B8B2AA" stroke-width="1.4"/><text x="760" y="1240.5" text-anchor="middle" font-size="12.5" fill="#78716C"><tspan font-weight="700" fill="#78716C">UC-7.1</tspan><tspan dx="7">Đặt hàng</tspan></text></g>
<g><ellipse cx="760" cy="1284" rx="186" ry="21" fill="#fff" stroke="#B8B2AA" stroke-width="1.4"/><text x="760" y="1288.5" text-anchor="middle" font-size="12.5" fill="#78716C"><tspan font-weight="700" fill="#78716C">UC-7.2</tspan><tspan dx="7">Chọn hình thức nhận hàng</tspan></text></g>
<g><ellipse cx="760" cy="1332" rx="186" ry="21" fill="#fff" stroke="#B8B2AA" stroke-width="1.4"/><text x="760" y="1336.5" text-anchor="middle" font-size="12.5" fill="#78716C"><tspan font-weight="700" fill="#78716C">UC-7.3</tspan><tspan dx="7">Chọn hoặc nhập địa chỉ nhận hàng</tspan></text></g>
<g><ellipse cx="760" cy="1380" rx="186" ry="21" fill="#fff" stroke="#B8B2AA" stroke-width="1.4"/><text x="760" y="1384.5" text-anchor="middle" font-size="12.5" fill="#78716C"><tspan font-weight="700" fill="#78716C">UC-7.4</tspan><tspan dx="7">Chọn phương thức vận chuyển</tspan></text></g>
<g><ellipse cx="760" cy="1428" rx="186" ry="21" fill="#fff" stroke="#B8B2AA" stroke-width="1.4"/><text x="760" y="1432.5" text-anchor="middle" font-size="12.5" fill="#78716C"><tspan font-weight="700" fill="#78716C">UC-7.5</tspan><tspan dx="7">Chọn phương thức thanh toán</tspan></text></g>
<g><ellipse cx="760" cy="1476" rx="186" ry="21" fill="#fff" stroke="#B8B2AA" stroke-width="1.4"/><text x="760" y="1480.5" text-anchor="middle" font-size="12.5" fill="#78716C"><tspan font-weight="700" fill="#78716C">UC-7.6</tspan><tspan dx="7">Thanh toán bằng mã QR VNPay</tspan></text></g>
<g><ellipse cx="760" cy="1524" rx="186" ry="21" fill="#fff" stroke="#B8B2AA" stroke-width="1.4"/><text x="760" y="1528.5" text-anchor="middle" font-size="12.5" fill="#78716C"><tspan font-weight="700" fill="#78716C">UC-7.7</tspan><tspan dx="7">Yêu cầu xuất hóa đơn VAT</tspan></text></g>
<g><ellipse cx="760" cy="1572" rx="186" ry="21" fill="#fff" stroke="#B8B2AA" stroke-width="1.4"/><text x="760" y="1576.5" text-anchor="middle" font-size="12.5" fill="#78716C"><tspan font-weight="700" fill="#78716C">UC-7.8</tspan><tspan dx="7">Xem xác nhận đặt hàng thành công</tspan></text></g>
<g><ellipse cx="760" cy="1620" rx="186" ry="21" fill="#fff" stroke="#B8B2AA" stroke-width="1.4"/><text x="760" y="1624.5" text-anchor="middle" font-size="12.5" fill="#78716C"><tspan font-weight="700" fill="#78716C">UC-7.9</tspan><tspan dx="7">In phiếu đơn hàng</tspan></text></g>
<g><ellipse cx="760" cy="1668" rx="186" ry="21" fill="#fff" stroke="#292524" stroke-width="1.4"/><text x="760" y="1672.5" text-anchor="middle" font-size="12.5" fill="#1C1917"><tspan font-weight="700" fill="#57534E">UC-7.10</tspan><tspan dx="7">Xuất VAT bằng thông tin doanh nghiệp điền sẵn</tspan></text></g>
<g><ellipse cx="760" cy="1768" rx="186" ry="21" fill="#fff" stroke="#B8B2AA" stroke-width="1.4"/><text x="760" y="1772.5" text-anchor="middle" font-size="12.5" fill="#78716C"><tspan font-weight="700" fill="#78716C">UC-8.1</tspan><tspan dx="7">Xem sản phẩm yêu thích</tspan></text></g>
<g><ellipse cx="760" cy="1816" rx="186" ry="21" fill="#fff" stroke="#B8B2AA" stroke-width="1.4"/><text x="760" y="1820.5" text-anchor="middle" font-size="12.5" fill="#78716C"><tspan font-weight="700" fill="#78716C">UC-8.2</tspan><tspan dx="7">Thêm sản phẩm vào yêu thích</tspan></text></g>
<g><ellipse cx="760" cy="1864" rx="186" ry="21" fill="#fff" stroke="#B8B2AA" stroke-width="1.4"/><text x="760" y="1868.5" text-anchor="middle" font-size="12.5" fill="#78716C"><tspan font-weight="700" fill="#78716C">UC-8.3</tspan><tspan dx="7">Bỏ sản phẩm khỏi yêu thích</tspan></text></g>
<g><ellipse cx="760" cy="1912" rx="186" ry="21" fill="#fff" stroke="#B8B2AA" stroke-width="1.4"/><text x="760" y="1916.5" text-anchor="middle" font-size="12.5" fill="#78716C"><tspan font-weight="700" fill="#78716C">UC-8.4</tspan><tspan dx="7">Viết đánh giá sản phẩm</tspan></text></g>
<g><ellipse cx="760" cy="2012" rx="186" ry="21" fill="#fff" stroke="#B8B2AA" stroke-width="1.4"/><text x="760" y="2016.5" text-anchor="middle" font-size="12.5" fill="#78716C"><tspan font-weight="700" fill="#78716C">UC-9.1</tspan><tspan dx="7">Xem tổng quan tài khoản</tspan></text></g>
<g><ellipse cx="760" cy="2060" rx="186" ry="21" fill="#fff" stroke="#B8B2AA" stroke-width="1.4"/><text x="760" y="2064.5" text-anchor="middle" font-size="12.5" fill="#78716C"><tspan font-weight="700" fill="#78716C">UC-9.2</tspan><tspan dx="7">Xem sổ địa chỉ</tspan></text></g>
<g><ellipse cx="760" cy="2108" rx="186" ry="21" fill="#fff" stroke="#B8B2AA" stroke-width="1.4"/><text x="760" y="2112.5" text-anchor="middle" font-size="12.5" fill="#78716C"><tspan font-weight="700" fill="#78716C">UC-9.3</tspan><tspan dx="7">Thêm địa chỉ mới</tspan></text></g>
<g><ellipse cx="760" cy="2156" rx="186" ry="21" fill="#fff" stroke="#B8B2AA" stroke-width="1.4"/><text x="760" y="2160.5" text-anchor="middle" font-size="12.5" fill="#78716C"><tspan font-weight="700" fill="#78716C">UC-9.4</tspan><tspan dx="7">Sửa địa chỉ</tspan></text></g>
<g><ellipse cx="760" cy="2204" rx="186" ry="21" fill="#fff" stroke="#B8B2AA" stroke-width="1.4"/><text x="760" y="2208.5" text-anchor="middle" font-size="12.5" fill="#78716C"><tspan font-weight="700" fill="#78716C">UC-9.5</tspan><tspan dx="7">Xóa địa chỉ</tspan></text></g>
<g><ellipse cx="760" cy="2252" rx="186" ry="21" fill="#fff" stroke="#B8B2AA" stroke-width="1.4"/><text x="760" y="2256.5" text-anchor="middle" font-size="12.5" fill="#78716C"><tspan font-weight="700" fill="#78716C">UC-9.6</tspan><tspan dx="7">Đặt địa chỉ mặc định</tspan></text></g>
<g><ellipse cx="760" cy="2300" rx="186" ry="21" fill="#fff" stroke="#B8B2AA" stroke-width="1.4"/><text x="760" y="2304.5" text-anchor="middle" font-size="12.5" fill="#78716C"><tspan font-weight="700" fill="#78716C">UC-9.7</tspan><tspan dx="7">Cập nhật thông tin cá nhân</tspan></text></g>
<g><ellipse cx="760" cy="2348" rx="186" ry="21" fill="#fff" stroke="#B8B2AA" stroke-width="1.4"/><text x="760" y="2352.5" text-anchor="middle" font-size="12.5" fill="#78716C"><tspan font-weight="700" fill="#78716C">UC-9.8</tspan><tspan dx="7">Đổi mật khẩu</tspan></text></g>
<g><ellipse cx="760" cy="2396" rx="186" ry="21" fill="#fff" stroke="#292524" stroke-width="1.4"/><text x="760" y="2400.5" text-anchor="middle" font-size="12.5" fill="#1C1917"><tspan font-weight="700" fill="#57534E">UC-9.9</tspan><tspan dx="7">Xem hồ sơ doanh nghiệp</tspan></text></g>
<g><ellipse cx="760" cy="2444" rx="186" ry="21" fill="#fff" stroke="#292524" stroke-width="1.4"/><text x="760" y="2448.5" text-anchor="middle" font-size="12.5" fill="#1C1917"><tspan font-weight="700" fill="#57534E">UC-9.10</tspan><tspan dx="7">Cập nhật thông tin xuất hóa đơn VAT</tspan></text></g>
<g><ellipse cx="760" cy="2492" rx="186" ry="21" fill="#fff" stroke="#292524" stroke-width="1.4"/><text x="760" y="2496.5" text-anchor="middle" font-size="12.5" fill="#1C1917"><tspan font-weight="700" fill="#57534E">UC-9.11</tspan><tspan dx="7">Xem bảng chiết khấu của tôi</tspan></text></g>
<g><ellipse cx="760" cy="2540" rx="186" ry="21" fill="#fff" stroke="#292524" stroke-width="1.4"/><text x="760" y="2544.5" text-anchor="middle" font-size="12.5" fill="#1C1917"><tspan font-weight="700" fill="#57534E">UC-9.12</tspan><tspan dx="7">Xem hạn mức công nợ</tspan></text></g>
<g><circle cx="165" cy="84" r="11" fill="#fff" stroke="#292524" stroke-width="2"/><path d="M165 95 V128 M144 107 H186 M165 128 L149 156 M165 128 L181 156" fill="none" stroke="#292524" stroke-width="2" stroke-linecap="round"/><text x="165" y="176" text-anchor="middle" font-size="14" font-weight="700" fill="#1C1917">Khách hàng sỉ</text><text x="165" y="193" text-anchor="middle" font-size="12.5" font-weight="400" fill="#57534E">(Wholesale)</text><text x="165" y="210" text-anchor="middle" font-size="12.5" font-weight="400" font-style="italic" fill="#57534E">79 chức năng</text><text x="165" y="227" text-anchor="middle" font-size="12.5" font-weight="400" font-style="italic" fill="#57534E">5 riêng</text><text x="165" y="244" text-anchor="middle" font-size="12.5" font-weight="400" font-style="italic" fill="#57534E">74 kế thừa từ Khách hàng lẻ</text></g>
<g transform="translate(24,2635)"><line x1="0" y1="0" x2="34" y2="0" stroke="#292524" stroke-width="1.4"/><text x="42" y="4" font-size="12" fill="#57534E">Chức năng làm trực tiếp</text></g><g transform="translate(250,2635)"><line x1="0" y1="0" x2="34" y2="0" stroke="#B8B2AA" stroke-width="1.1"/><text x="42" y="4" font-size="12" fill="#57534E">Chức năng kế thừa từ Khách hàng lẻ và cấp trên</text></g>
</svg>
