<?xml version="1.0" encoding="UTF-8"?>
<svg xmlns="http://www.w3.org/2000/svg" width="1016" height="1365" viewBox="0 0 1016 1365" font-family="'Helvetica Neue', Helvetica, Arial, sans-serif">
<title>Chức năng của Khách vãng lai — 36 chức năng</title>
<rect width="100%" height="100%" fill="#FFFFFF"/>
<rect x="733.2" y="232" width="242.79999999999998" height="27" fill="#fff" stroke="#292524" stroke-width="1.5"/><text x="854.6" y="250" text-anchor="middle" font-size="13" font-weight="600" fill="#1C1917">Chức năng của Khách vãng lai</text>
<rect x="60" y="259" width="916" height="1036" fill="#fff" stroke="#292524" stroke-width="1.8"/>
<text x="94" y="291" font-size="12.5" font-weight="700" fill="#57534E">Hình 2.1 · Cửa hàng, hỗ trợ và mua sỉ</text>
<line x1="94" y1="298" x2="466" y2="298" stroke="#E7E5E4" stroke-width="1"/>
<text x="94" y="823" font-size="12.5" font-weight="700" fill="#57534E">Hình 2.2 · Xem chi tiết sản phẩm</text>
<line x1="94" y1="830" x2="466" y2="830" stroke="#E7E5E4" stroke-width="1"/>
<text x="574" y="291" font-size="12.5" font-weight="700" fill="#57534E">Hình 2.3 · Duyệt, tìm kiếm và combo</text>
<line x1="574" y1="298" x2="946" y2="298" stroke="#E7E5E4" stroke-width="1"/>
<text x="574" y="823" font-size="12.5" font-weight="700" fill="#57534E">Hình 2.4 · Tài khoản và xác thực</text>
<line x1="574" y1="830" x2="946" y2="830" stroke="#E7E5E4" stroke-width="1"/>
<text x="574" y="1163" font-size="12.5" font-weight="700" fill="#57534E">Hình 2.5 · Theo dõi và quản lý đơn hàng</text>
<line x1="574" y1="1170" x2="946" y2="1170" stroke="#E7E5E4" stroke-width="1"/>
<line x1="186" y1="107" x2="520" y2="107" stroke="#292524" stroke-width="1.4"/>
<line x1="520" y1="107" x2="520" y2="1246" stroke="#292524" stroke-width="1.4"/>
<line x1="520" y1="330" x2="466" y2="330" stroke="#292524" stroke-width="1.4"/>
<line x1="520" y1="378" x2="466" y2="378" stroke="#292524" stroke-width="1.4"/>
<line x1="520" y1="426" x2="466" y2="426" stroke="#292524" stroke-width="1.4"/>
<line x1="520" y1="474" x2="466" y2="474" stroke="#292524" stroke-width="1.4"/>
<line x1="520" y1="522" x2="466" y2="522" stroke="#292524" stroke-width="1.4"/>
<line x1="520" y1="570" x2="466" y2="570" stroke="#292524" stroke-width="1.4"/>
<line x1="520" y1="618" x2="466" y2="618" stroke="#292524" stroke-width="1.4"/>
<line x1="520" y1="666" x2="466" y2="666" stroke="#292524" stroke-width="1.4"/>
<line x1="520" y1="714" x2="466" y2="714" stroke="#292524" stroke-width="1.4"/>
<line x1="520" y1="762" x2="466" y2="762" stroke="#292524" stroke-width="1.4"/>
<line x1="520" y1="862" x2="466" y2="862" stroke="#292524" stroke-width="1.4"/>
<line x1="520" y1="910" x2="466" y2="910" stroke="#292524" stroke-width="1.4"/>
<line x1="520" y1="958" x2="466" y2="958" stroke="#292524" stroke-width="1.4"/>
<line x1="520" y1="1006" x2="466" y2="1006" stroke="#292524" stroke-width="1.4"/>
<line x1="520" y1="1054" x2="466" y2="1054" stroke="#292524" stroke-width="1.4"/>
<line x1="520" y1="1102" x2="466" y2="1102" stroke="#292524" stroke-width="1.4"/>
<line x1="520" y1="1150" x2="466" y2="1150" stroke="#292524" stroke-width="1.4"/>
<line x1="520" y1="1198" x2="466" y2="1198" stroke="#292524" stroke-width="1.4"/>
<line x1="520" y1="1246" x2="466" y2="1246" stroke="#292524" stroke-width="1.4"/>
<line x1="520" y1="330" x2="574" y2="330" stroke="#292524" stroke-width="1.4"/>
<line x1="520" y1="378" x2="574" y2="378" stroke="#292524" stroke-width="1.4"/>
<line x1="520" y1="426" x2="574" y2="426" stroke="#292524" stroke-width="1.4"/>
<line x1="520" y1="474" x2="574" y2="474" stroke="#292524" stroke-width="1.4"/>
<line x1="520" y1="522" x2="574" y2="522" stroke="#292524" stroke-width="1.4"/>
<line x1="520" y1="570" x2="574" y2="570" stroke="#292524" stroke-width="1.4"/>
<line x1="520" y1="618" x2="574" y2="618" stroke="#292524" stroke-width="1.4"/>
<line x1="520" y1="666" x2="574" y2="666" stroke="#292524" stroke-width="1.4"/>
<line x1="520" y1="714" x2="574" y2="714" stroke="#292524" stroke-width="1.4"/>
<line x1="520" y1="762" x2="574" y2="762" stroke="#292524" stroke-width="1.4"/>
<line x1="520" y1="862" x2="574" y2="862" stroke="#292524" stroke-width="1.4"/>
<line x1="520" y1="910" x2="574" y2="910" stroke="#292524" stroke-width="1.4"/>
<line x1="520" y1="958" x2="574" y2="958" stroke="#292524" stroke-width="1.4"/>
<line x1="520" y1="1006" x2="574" y2="1006" stroke="#292524" stroke-width="1.4"/>
<line x1="520" y1="1054" x2="574" y2="1054" stroke="#292524" stroke-width="1.4"/>
<line x1="520" y1="1102" x2="574" y2="1102" stroke="#292524" stroke-width="1.4"/>
<line x1="520" y1="1202" x2="574" y2="1202" stroke="#292524" stroke-width="1.4"/>
<g><ellipse cx="280" cy="330" rx="186" ry="21" fill="#fff" stroke="#292524" stroke-width="1.4"/><text x="280" y="334.5" text-anchor="middle" font-size="12.5" fill="#1C1917"><tspan font-weight="700" fill="#57534E">UC-1.1</tspan><tspan dx="7">Xem hệ thống cửa hàng</tspan></text></g>
<g><ellipse cx="280" cy="378" rx="186" ry="21" fill="#fff" stroke="#292524" stroke-width="1.4"/><text x="280" y="382.5" text-anchor="middle" font-size="12.5" fill="#1C1917"><tspan font-weight="700" fill="#57534E">UC-1.2</tspan><tspan dx="7">Lọc cửa hàng theo khu vực</tspan></text></g>
<g><ellipse cx="280" cy="426" rx="186" ry="21" fill="#fff" stroke="#292524" stroke-width="1.4"/><text x="280" y="430.5" text-anchor="middle" font-size="12.5" fill="#1C1917"><tspan font-weight="700" fill="#57534E">UC-1.3</tspan><tspan dx="7">Xem chỉ đường đến cửa hàng</tspan></text></g>
<g><ellipse cx="280" cy="474" rx="186" ry="21" fill="#fff" stroke="#292524" stroke-width="1.4"/><text x="280" y="478.5" text-anchor="middle" font-size="12.5" fill="#1C1917"><tspan font-weight="700" fill="#57534E">UC-1.4</tspan><tspan dx="7">Gọi điện đến cửa hàng</tspan></text></g>
<g><ellipse cx="280" cy="522" rx="186" ry="21" fill="#fff" stroke="#292524" stroke-width="1.4"/><text x="280" y="526.5" text-anchor="middle" font-size="12.5" fill="#1C1917"><tspan font-weight="700" fill="#57534E">UC-1.5</tspan><tspan dx="7">Xem trung tâm hỗ trợ và chính sách</tspan></text></g>
<g><ellipse cx="280" cy="570" rx="186" ry="21" fill="#fff" stroke="#292524" stroke-width="1.4"/><text x="280" y="574.5" text-anchor="middle" font-size="12.5" fill="#1C1917"><tspan font-weight="700" fill="#57534E">UC-1.6</tspan><tspan dx="7">Xem câu hỏi thường gặp (FAQ)</tspan></text></g>
<g><ellipse cx="280" cy="618" rx="186" ry="21" fill="#fff" stroke="#292524" stroke-width="1.4"/><text x="280" y="622.5" text-anchor="middle" font-size="12.5" fill="#1C1917"><tspan font-weight="700" fill="#57534E">UC-1.7</tspan><tspan dx="7">Xem giới thiệu công ty</tspan></text></g>
<g><ellipse cx="280" cy="666" rx="186" ry="21" fill="#fff" stroke="#292524" stroke-width="1.4"/><text x="280" y="670.5" text-anchor="middle" font-size="12.5" fill="#1C1917"><tspan font-weight="700" fill="#57534E">UC-1.8</tspan><tspan dx="7">Gửi liên hệ, góp ý</tspan></text></g>
<g><ellipse cx="280" cy="714" rx="186" ry="21" fill="#fff" stroke="#292524" stroke-width="1.4"/><text x="280" y="718.5" text-anchor="middle" font-size="12.5" fill="#1C1917"><tspan font-weight="700" fill="#57534E">UC-1.9</tspan><tspan dx="7">Xem quyền lợi và bảng chiết khấu mua sỉ</tspan></text></g>
<g><ellipse cx="280" cy="762" rx="186" ry="21" fill="#fff" stroke="#292524" stroke-width="1.4"/><text x="280" y="766.5" text-anchor="middle" font-size="12.5" fill="#1C1917"><tspan font-weight="700" fill="#57534E">UC-1.10</tspan><tspan dx="7">Gửi yêu cầu đăng ký đại lý mua sỉ</tspan></text></g>
<g><ellipse cx="280" cy="862" rx="186" ry="21" fill="#fff" stroke="#292524" stroke-width="1.4"/><text x="280" y="866.5" text-anchor="middle" font-size="12.5" fill="#1C1917"><tspan font-weight="700" fill="#57534E">UC-2.1</tspan><tspan dx="7">Xem chi tiết sản phẩm</tspan></text></g>
<g><ellipse cx="280" cy="910" rx="186" ry="21" fill="#fff" stroke="#292524" stroke-width="1.4"/><text x="280" y="914.5" text-anchor="middle" font-size="12.5" fill="#1C1917"><tspan font-weight="700" fill="#57534E">UC-2.2</tspan><tspan dx="7">Phóng to ảnh sản phẩm</tspan></text></g>
<g><ellipse cx="280" cy="958" rx="186" ry="21" fill="#fff" stroke="#292524" stroke-width="1.4"/><text x="280" y="962.5" text-anchor="middle" font-size="12.5" fill="#1C1917"><tspan font-weight="700" fill="#57534E">UC-2.3</tspan><tspan dx="7">Xem bảng giá sỉ bậc thang</tspan></text></g>
<g><ellipse cx="280" cy="1006" rx="186" ry="21" fill="#fff" stroke="#292524" stroke-width="1.4"/><text x="280" y="1010.5" text-anchor="middle" font-size="12.5" fill="#1C1917"><tspan font-weight="700" fill="#57534E">UC-2.4</tspan><tspan dx="7">Chọn nhanh số lượng theo bậc giá</tspan></text></g>
<g><ellipse cx="280" cy="1054" rx="186" ry="21" fill="#fff" stroke="#292524" stroke-width="1.4"/><text x="280" y="1058.5" text-anchor="middle" font-size="12.5" fill="#1C1917"><tspan font-weight="700" fill="#57534E">UC-2.5</tspan><tspan dx="7">Xem hạn dùng, số lô và tồn kho</tspan></text></g>
<g><ellipse cx="280" cy="1102" rx="186" ry="21" fill="#fff" stroke="#292524" stroke-width="1.4"/><text x="280" y="1106.5" text-anchor="middle" font-size="12.5" fill="#1C1917"><tspan font-weight="700" fill="#57534E">UC-2.6</tspan><tspan dx="7">Xem tình trạng hàng tại các cửa hàng</tspan></text></g>
<g><ellipse cx="280" cy="1150" rx="186" ry="21" fill="#fff" stroke="#292524" stroke-width="1.4"/><text x="280" y="1154.5" text-anchor="middle" font-size="12.5" fill="#1C1917"><tspan font-weight="700" fill="#57534E">UC-2.7</tspan><tspan dx="7">Xem mô tả, thành phần và thông số</tspan></text></g>
<g><ellipse cx="280" cy="1198" rx="186" ry="21" fill="#fff" stroke="#292524" stroke-width="1.4"/><text x="280" y="1202.5" text-anchor="middle" font-size="12.5" fill="#1C1917"><tspan font-weight="700" fill="#57534E">UC-2.8</tspan><tspan dx="7">Xem đánh giá của khách hàng</tspan></text></g>
<g><ellipse cx="280" cy="1246" rx="186" ry="21" fill="#fff" stroke="#292524" stroke-width="1.4"/><text x="280" y="1250.5" text-anchor="middle" font-size="12.5" fill="#1C1917"><tspan font-weight="700" fill="#57534E">UC-2.9</tspan><tspan dx="7">Xem món bánh phù hợp và sản phẩm liên quan</tspan></text></g>
<g><ellipse cx="760" cy="330" rx="186" ry="21" fill="#fff" stroke="#292524" stroke-width="1.4"/><text x="760" y="334.5" text-anchor="middle" font-size="12.5" fill="#1C1917"><tspan font-weight="700" fill="#57534E">UC-3.1</tspan><tspan dx="7">Xem trang chủ</tspan></text></g>
<g><ellipse cx="760" cy="378" rx="186" ry="21" fill="#fff" stroke="#292524" stroke-width="1.4"/><text x="760" y="382.5" text-anchor="middle" font-size="12.5" fill="#1C1917"><tspan font-weight="700" fill="#57534E">UC-3.2</tspan><tspan dx="7">Duyệt sản phẩm theo danh mục</tspan></text></g>
<g><ellipse cx="760" cy="426" rx="186" ry="21" fill="#fff" stroke="#292524" stroke-width="1.4"/><text x="760" y="430.5" text-anchor="middle" font-size="12.5" fill="#1C1917"><tspan font-weight="700" fill="#57534E">UC-3.3</tspan><tspan dx="7">Lọc sản phẩm</tspan></text></g>
<g><ellipse cx="760" cy="474" rx="186" ry="21" fill="#fff" stroke="#292524" stroke-width="1.4"/><text x="760" y="478.5" text-anchor="middle" font-size="12.5" fill="#1C1917"><tspan font-weight="700" fill="#57534E">UC-3.4</tspan><tspan dx="7">Sắp xếp sản phẩm</tspan></text></g>
<g><ellipse cx="760" cy="522" rx="186" ry="21" fill="#fff" stroke="#292524" stroke-width="1.4"/><text x="760" y="526.5" text-anchor="middle" font-size="12.5" fill="#1C1917"><tspan font-weight="700" fill="#57534E">UC-3.5</tspan><tspan dx="7">Chuyển trang danh sách</tspan></text></g>
<g><ellipse cx="760" cy="570" rx="186" ry="21" fill="#fff" stroke="#292524" stroke-width="1.4"/><text x="760" y="574.5" text-anchor="middle" font-size="12.5" fill="#1C1917"><tspan font-weight="700" fill="#57534E">UC-3.6</tspan><tspan dx="7">Tìm kiếm sản phẩm</tspan></text></g>
<g><ellipse cx="760" cy="618" rx="186" ry="21" fill="#fff" stroke="#292524" stroke-width="1.4"/><text x="760" y="622.5" text-anchor="middle" font-size="12.5" fill="#1C1917"><tspan font-weight="700" fill="#57534E">UC-3.7</tspan><tspan dx="7">Xem gợi ý tìm kiếm (Ctrl/⌘ + K)</tspan></text></g>
<g><ellipse cx="760" cy="666" rx="186" ry="21" fill="#fff" stroke="#292524" stroke-width="1.4"/><text x="760" y="670.5" text-anchor="middle" font-size="12.5" fill="#1C1917"><tspan font-weight="700" fill="#57534E">UC-3.8</tspan><tspan dx="7">Xem danh sách combo công thức</tspan></text></g>
<g><ellipse cx="760" cy="714" rx="186" ry="21" fill="#fff" stroke="#292524" stroke-width="1.4"/><text x="760" y="718.5" text-anchor="middle" font-size="12.5" fill="#1C1917"><tspan font-weight="700" fill="#57534E">UC-3.9</tspan><tspan dx="7">Xem chi tiết combo và cách làm</tspan></text></g>
<g><ellipse cx="760" cy="762" rx="186" ry="21" fill="#fff" stroke="#292524" stroke-width="1.4"/><text x="760" y="766.5" text-anchor="middle" font-size="12.5" fill="#1C1917"><tspan font-weight="700" fill="#57534E">UC-3.10</tspan><tspan dx="7">Chọn hoặc bỏ nguyên liệu trong combo</tspan></text></g>
<g><ellipse cx="760" cy="862" rx="186" ry="21" fill="#fff" stroke="#292524" stroke-width="1.4"/><text x="760" y="866.5" text-anchor="middle" font-size="12.5" fill="#1C1917"><tspan font-weight="700" fill="#57534E">UC-4.1</tspan><tspan dx="7">Đăng nhập</tspan></text></g>
<g><ellipse cx="760" cy="910" rx="186" ry="21" fill="#fff" stroke="#292524" stroke-width="1.4"/><text x="760" y="914.5" text-anchor="middle" font-size="12.5" fill="#1C1917"><tspan font-weight="700" fill="#57534E">UC-4.2</tspan><tspan dx="7">Đăng ký tài khoản khách lẻ</tspan></text></g>
<g><ellipse cx="760" cy="958" rx="186" ry="21" fill="#fff" stroke="#292524" stroke-width="1.4"/><text x="760" y="962.5" text-anchor="middle" font-size="12.5" fill="#1C1917"><tspan font-weight="700" fill="#57534E">UC-4.3</tspan><tspan dx="7">Đăng ký tài khoản doanh nghiệp (sỉ)</tspan></text></g>
<g><ellipse cx="760" cy="1006" rx="186" ry="21" fill="#fff" stroke="#292524" stroke-width="1.4"/><text x="760" y="1010.5" text-anchor="middle" font-size="12.5" fill="#1C1917"><tspan font-weight="700" fill="#57534E">UC-4.4</tspan><tspan dx="7">Xác thực OTP</tspan></text></g>
<g><ellipse cx="760" cy="1054" rx="186" ry="21" fill="#fff" stroke="#292524" stroke-width="1.4"/><text x="760" y="1058.5" text-anchor="middle" font-size="12.5" fill="#1C1917"><tspan font-weight="700" fill="#57534E">UC-4.5</tspan><tspan dx="7">Gửi lại mã OTP</tspan></text></g>
<g><ellipse cx="760" cy="1102" rx="186" ry="21" fill="#fff" stroke="#292524" stroke-width="1.4"/><text x="760" y="1106.5" text-anchor="middle" font-size="12.5" fill="#1C1917"><tspan font-weight="700" fill="#57534E">UC-4.6</tspan><tspan dx="7">Quên mật khẩu</tspan></text></g>
<g><ellipse cx="760" cy="1202" rx="186" ry="21" fill="#fff" stroke="#292524" stroke-width="1.4"/><text x="760" y="1206.5" text-anchor="middle" font-size="12.5" fill="#1C1917"><tspan font-weight="700" fill="#57534E">UC-5.1</tspan><tspan dx="7">Tra cứu đơn hàng bằng mã đơn và SĐT</tspan></text></g>
<g><circle cx="165" cy="84" r="11" fill="#fff" stroke="#292524" stroke-width="2"/><path d="M165 95 V128 M144 107 H186 M165 128 L149 156 M165 128 L181 156" fill="none" stroke="#292524" stroke-width="2" stroke-linecap="round"/><text x="165" y="176" text-anchor="middle" font-size="14" font-weight="700" fill="#1C1917">Khách vãng lai</text><text x="165" y="193" text-anchor="middle" font-size="12.5" font-weight="400" fill="#57534E">(Guest)</text><text x="165" y="210" text-anchor="middle" font-size="12.5" font-weight="400" font-style="italic" fill="#57534E">36 chức năng</text></g>
<g transform="translate(24,1341)"><line x1="0" y1="0" x2="34" y2="0" stroke="#292524" stroke-width="1.4"/><text x="42" y="4" font-size="12" fill="#57534E">Chức năng làm trực tiếp</text></g>
</svg>
