<?xml version="1.0" encoding="UTF-8"?>
<svg xmlns="http://www.w3.org/2000/svg" width="978" height="1138" viewBox="0 0 978 1138" font-family="'Helvetica Neue', Helvetica, Arial, sans-serif">
<title>Sơ đồ use case phân rã — Quản lý đơn hàng</title>
<defs>
  <marker id="open" viewBox="0 0 12 12" refX="11" refY="6" markerWidth="11" markerHeight="11" orient="auto"><path d="M1 1 L11 6 L1 11" fill="none" stroke="#292524" stroke-width="1.5"/></marker>
  <marker id="tri" viewBox="0 0 16 14" refX="15" refY="7" markerWidth="15" markerHeight="13" orient="auto"><path d="M1 1 L15 7 L1 13 Z" fill="#fff" stroke="#292524" stroke-width="1.5"/></marker>
</defs>
<rect width="100%" height="100%" fill="#FFFFFF"/>
<rect x="766.4" y="17" width="151.6" height="27" fill="#fff" stroke="#292524" stroke-width="1.5"/><text x="842.2" y="35" text-anchor="middle" font-size="13" font-weight="600" fill="#1C1917">Quản lý đơn hàng</text>
<rect x="272" y="44" width="646" height="1024" fill="#fff" stroke="#292524" stroke-width="1.8"/>
<line x1="131.0" y1="545.0" x2="312.0" y2="314.0" stroke="#292524" stroke-width="1.4"/>
<line x1="131.0" y1="545.0" x2="312.0" y2="798.0" stroke="#292524" stroke-width="1.4"/>
<line x1="110.0" y1="722.0" x2="110.0" y2="658.0" stroke="#292524" stroke-width="1.4" marker-end="url(#tri)"/>
<line x1="642.0" y1="122.0" x2="524.9" y2="293.8" stroke="#292524" stroke-width="1.4" stroke-dasharray="7 5" marker-end="url(#open)"/>
<line x1="642.0" y1="218.0" x2="540.7" y2="302.2" stroke="#292524" stroke-width="1.4" stroke-dasharray="7 5" marker-end="url(#open)"/>
<line x1="642.0" y1="314.0" x2="548.0" y2="314.0" stroke="#292524" stroke-width="1.4" stroke-dasharray="7 5" marker-end="url(#open)"/>
<line x1="642.0" y1="410.0" x2="540.7" y2="325.8" stroke="#292524" stroke-width="1.4" stroke-dasharray="7 5" marker-end="url(#open)"/>
<line x1="642.0" y1="506.0" x2="524.9" y2="334.2" stroke="#292524" stroke-width="1.4" stroke-dasharray="7 5" marker-end="url(#open)"/>
<line x1="524.9" y1="818.2" x2="642.0" y2="990.0" stroke="#292524" stroke-width="1.4" stroke-dasharray="7 5" marker-end="url(#open)"/>
<line x1="642.0" y1="606.0" x2="524.9" y2="777.8" stroke="#292524" stroke-width="1.4" stroke-dasharray="7 5" marker-end="url(#open)"/>
<line x1="642.0" y1="702.0" x2="540.7" y2="786.2" stroke="#292524" stroke-width="1.4" stroke-dasharray="7 5" marker-end="url(#open)"/>
<line x1="642.0" y1="798.0" x2="548.0" y2="798.0" stroke="#292524" stroke-width="1.4" stroke-dasharray="7 5" marker-end="url(#open)"/>
<line x1="642.0" y1="894.0" x2="540.7" y2="809.8" stroke="#292524" stroke-width="1.4" stroke-dasharray="7 5" marker-end="url(#open)"/>
<text x="567.9" y="176.2" text-anchor="middle" font-size="12" font-style="italic" fill="#57534E" stroke="#fff" stroke-width="4" paint-order="stroke">«extend»</text>
<text x="620.2" y="278.2" text-anchor="middle" font-size="12" font-style="italic" fill="#57534E" stroke="#fff" stroke-width="4" paint-order="stroke">«extend»</text>
<text x="604.4" y="305.0" text-anchor="middle" font-size="12" font-style="italic" fill="#57534E" stroke="#fff" stroke-width="4" paint-order="stroke">«extend»</text>
<text x="620.2" y="357.8" text-anchor="middle" font-size="12" font-style="italic" fill="#57534E" stroke="#fff" stroke-width="4" paint-order="stroke">«extend»</text>
<text x="567.9" y="459.8" text-anchor="middle" font-size="12" font-style="italic" fill="#57534E" stroke="#fff" stroke-width="4" paint-order="stroke">«extend»</text>
<text x="565.7" y="945.4" text-anchor="middle" font-size="12" font-style="italic" fill="#57534E" stroke="#fff" stroke-width="4" paint-order="stroke">«include»</text>
<text x="567.9" y="660.2" text-anchor="middle" font-size="12" font-style="italic" fill="#57534E" stroke="#fff" stroke-width="4" paint-order="stroke">«extend»</text>
<text x="620.2" y="762.2" text-anchor="middle" font-size="12" font-style="italic" fill="#57534E" stroke="#fff" stroke-width="4" paint-order="stroke">«extend»</text>
<text x="604.4" y="789.0" text-anchor="middle" font-size="12" font-style="italic" fill="#57534E" stroke="#fff" stroke-width="4" paint-order="stroke">«extend»</text>
<text x="620.2" y="841.8" text-anchor="middle" font-size="12" font-style="italic" fill="#57534E" stroke="#fff" stroke-width="4" paint-order="stroke">«extend»</text>
<g><circle cx="110" cy="522" r="11" fill="#fff" stroke="#292524" stroke-width="2"/><path d="M110 533 V566 M89 545 H131 M110 566 L94 594 M110 566 L126 594" fill="none" stroke="#292524" stroke-width="2" stroke-linecap="round"/><text x="110" y="614" text-anchor="middle" font-size="14" font-weight="700" fill="#1C1917">Nhân viên kho</text><text x="110" y="631" text-anchor="middle" font-size="14" font-weight="700" fill="#1C1917">và vận hành</text><text x="110" y="648" text-anchor="middle" font-size="12.5" font-weight="400" fill="#57534E">(Staff)</text></g>
<g><circle cx="110" cy="737" r="11" fill="#fff" stroke="#292524" stroke-width="2"/><path d="M110 748 V781 M89 760 H131 M110 781 L94 809 M110 781 L126 809" fill="none" stroke="#292524" stroke-width="2" stroke-linecap="round"/><text x="110" y="829" text-anchor="middle" font-size="14" font-weight="700" fill="#1C1917">Quản trị viên</text><text x="110" y="846" text-anchor="middle" font-size="12.5" font-weight="400" fill="#57534E">(Admin)</text></g>
<g><ellipse cx="430" cy="314" rx="118" ry="34" fill="#fff" stroke="#292524" stroke-width="1.5"/><text x="430" y="309.6" text-anchor="middle" font-size="11" font-weight="700" fill="#57534E">UC-10.1</text><text x="430" y="325.2" text-anchor="middle" font-size="13.5" font-weight="500" fill="#1C1917">Xem danh sách đơn hàng</text></g>
<g><ellipse cx="760" cy="122" rx="118" ry="34" fill="#fff" stroke="#292524" stroke-width="1.5"/><text x="760" y="117.6" text-anchor="middle" font-size="11" font-weight="700" fill="#57534E">UC-10.2</text><text x="760" y="133.2" text-anchor="middle" font-size="13.5" font-weight="500" fill="#1C1917">Lọc đơn theo trạng thái</text></g>
<g><ellipse cx="760" cy="218" rx="118" ry="34" fill="#fff" stroke="#292524" stroke-width="1.5"/><text x="760" y="205.6" text-anchor="middle" font-size="11" font-weight="700" fill="#57534E">UC-10.3</text><text x="760" y="221.2" text-anchor="middle" font-size="13.5" font-weight="500" fill="#1C1917">Lọc đơn theo hình</text><text x="760" y="237.2" text-anchor="middle" font-size="13.5" font-weight="500" fill="#1C1917">thức vận chuyển</text></g>
<g><ellipse cx="760" cy="314" rx="118" ry="34" fill="#fff" stroke="#292524" stroke-width="1.5"/><text x="760" y="309.6" text-anchor="middle" font-size="11" font-weight="700" fill="#57534E">UC-10.4</text><text x="760" y="325.2" text-anchor="middle" font-size="13.5" font-weight="500" fill="#1C1917">Tìm kiếm đơn hàng</text></g>
<g><ellipse cx="760" cy="410" rx="118" ry="34" fill="#fff" stroke="#292524" stroke-width="1.5"/><text x="760" y="397.6" text-anchor="middle" font-size="11" font-weight="700" fill="#57534E">UC-10.5</text><text x="760" y="413.2" text-anchor="middle" font-size="13.5" font-weight="500" fill="#1C1917">Duyệt hàng loạt</text><text x="760" y="429.2" text-anchor="middle" font-size="13.5" font-weight="500" fill="#1C1917">các đơn đã chọn</text></g>
<g><ellipse cx="760" cy="506" rx="118" ry="34" fill="#fff" stroke="#292524" stroke-width="1.5"/><text x="760" y="493.6" text-anchor="middle" font-size="11" font-weight="700" fill="#57534E">UC-10.6</text><text x="760" y="509.2" text-anchor="middle" font-size="13.5" font-weight="500" fill="#1C1917">Xuất danh sách</text><text x="760" y="525.2" text-anchor="middle" font-size="13.5" font-weight="500" fill="#1C1917">đơn ra CSV</text></g>
<g><ellipse cx="430" cy="798" rx="118" ry="34" fill="#fff" stroke="#292524" stroke-width="1.5"/><text x="430" y="793.6" text-anchor="middle" font-size="11" font-weight="700" fill="#57534E">UC-10.7</text><text x="430" y="809.2" text-anchor="middle" font-size="13.5" font-weight="500" fill="#1C1917">Xem chi tiết đơn hàng</text></g>
<g><ellipse cx="760" cy="606" rx="118" ry="34" fill="#fff" stroke="#292524" stroke-width="1.5"/><text x="760" y="593.6" text-anchor="middle" font-size="11" font-weight="700" fill="#57534E">UC-10.8</text><text x="760" y="609.2" text-anchor="middle" font-size="13.5" font-weight="500" fill="#1C1917">Cập nhật trạng</text><text x="760" y="625.2" text-anchor="middle" font-size="13.5" font-weight="500" fill="#1C1917">thái xử lý đơn</text></g>
<g><ellipse cx="760" cy="702" rx="118" ry="34" fill="#fff" stroke="#292524" stroke-width="1.5"/><text x="760" y="689.6" text-anchor="middle" font-size="11" font-weight="700" fill="#57534E">UC-10.9</text><text x="760" y="705.2" text-anchor="middle" font-size="13.5" font-weight="500" fill="#1C1917">Kiểm tra checklist</text><text x="760" y="721.2" text-anchor="middle" font-size="13.5" font-weight="500" fill="#1C1917">đóng gói lạnh</text></g>
<g><ellipse cx="760" cy="798" rx="118" ry="34" fill="#fff" stroke="#292524" stroke-width="1.5"/><text x="760" y="793.6" text-anchor="middle" font-size="11" font-weight="700" fill="#57534E">UC-10.10</text><text x="760" y="809.2" text-anchor="middle" font-size="13.5" font-weight="500" fill="#1C1917">In phiếu xuất kho</text></g>
<g><ellipse cx="760" cy="894" rx="118" ry="34" fill="#fff" stroke="#292524" stroke-width="1.5"/><text x="760" y="889.6" text-anchor="middle" font-size="11" font-weight="700" fill="#57534E">UC-10.11</text><text x="760" y="905.2" text-anchor="middle" font-size="13.5" font-weight="500" fill="#1C1917">In hóa đơn VAT</text></g>
<g><ellipse cx="760" cy="990" rx="118" ry="34" fill="#fff" stroke="#292524" stroke-width="1.5"/><text x="760" y="977.6" text-anchor="middle" font-size="11" font-weight="700" fill="#57534E">UC-10.12</text><text x="760" y="993.2" text-anchor="middle" font-size="13.5" font-weight="500" fill="#1C1917">Xem lịch sử trạng</text><text x="760" y="1009.2" text-anchor="middle" font-size="13.5" font-weight="500" fill="#1C1917">thái của đơn</text></g>
<g transform="translate(24,1114)"><line x1="0" y1="0" x2="34" y2="0" stroke="#292524" stroke-width="1.4"/><text x="42" y="4" font-size="12" fill="#57534E">Kết hợp</text></g>
<g transform="translate(138.8,1114)"><line x1="0" y1="0" x2="34" y2="0" stroke="#292524" stroke-width="1.4" stroke-dasharray="7 5" marker-end="url(#open)"/><text x="42" y="4" font-size="12" fill="#57534E">«include» / «extend»</text></g>
<g transform="translate(336.8,1114)"><line x1="0" y1="0" x2="34" y2="0" stroke="#292524" stroke-width="1.4" marker-end="url(#tri)"/><text x="42" y="4" font-size="12" fill="#57534E">Kế thừa (actor con → actor cha)</text></g>
</svg>
